<svg enable-background="new 0 0 100 100" viewBox="0 0 100 100" xmlns="http://www.w3.org/2000/svg"><circle cx="75.7" cy="77.6" r="3.4"/><circle cx="51.6" cy="62.1" r="3.4"/><circle cx="39.6" cy="62.1" r="3.4"/><circle cx="51.6" cy="50.1" r="3.4"/><circle cx="39.6" cy="50.1" r="3.4"/><path d="M70.6 55.4h-5.2V8.6H29.3V0h-3.4v55.6C15.3 57.3 7 66.6 7 77.7c0 12.4 10 22.4 22.4 22.4h41.5c12.5 0 22.4-10 22.4-22.4S82.9 55.4 70.6 55.4zM29.3 12.1H62v22.5H29.3V12.1zm0 46.7V38H62v37.9H29.3V58.8zM70.6 97H29.1C18.6 97 10 88.6 10 77.9c0-9.4 6.7-17.1 15.5-18.6v20.2h39.7V59h5.2c10.5 0 19.1 8.5 19.1 19.1 0 10.6-8.4 18.9-18.9 18.9z"/></svg>