<svg width="40" height="32" viewBox="0 0 40 32" xmlns="http://www.w3.org/2000/svg"><g fill-rule="evenodd"><circle cx="20.8" cy="28.4" r="1"/><circle cx="29.3" cy="22.6" r="1"/><path d="M36.4 0H22.2c-1.6 0-2.9 1.3-2.9 2.9v5h-4.5l2.3-2.3-.7-.7-2.6 2.6-2.6-2.6-.7.7 2.3 2.3H6.4C2.9 7.9.1 10.7.1 14.2V25c0 3.5 2.8 6.3 6.3 6.3h14.9c3.3 0 6.1-2.6 6.3-5.9h8.8c1.6 0 2.9-1.3 2.9-2.9V2.9C39.3 1.3 38 0 36.4 0zM22.2 1h14.2c1 0 1.9.8 1.9 1.9v16.7h-18V2.9c0-1 .9-1.9 1.9-1.9zM1.5 26.7h4.8v3.6c-2.3-.2-4.1-1.6-4.8-3.6zm5.7 0h3.4v3.6H7.2v-3.6zm14.1 3.6h-9.7v-3.6h14.7c-.7 2.1-2.7 3.6-5 3.6zm5.3-4.6H1.3c0-.2-.1-.5-.1-.7V14.3C1.2 11.4 3.6 9 6.5 9h12.9v13.6c0 1.6 1.3 2.9 2.9 2.9h4.4c-.1 0-.1.1-.1.2zm9.8-1.3H22.2c-1 0-1.9-.8-1.9-1.9v-1.9h18v1.9c0 1.1-.8 1.9-1.9 1.9z"/><path d="M28.8 14.6l2.8-2.8c.3-.3.3-.9 0-1.2l-2.8-2.8c-.3-.3-.6-.2-.6.3v6.3c0 .5.3.6.6.2zM13.1 14.2c-.3-.3-.6-.2-.6.3v6.3c0 .5.3.6.6.3l2.8-2.8c.3-.3.3-.9 0-1.2l-2.8-2.9z"/></g></svg>