<svg viewBox="0 0 86 102" xmlns="http://www.w3.org/2000/svg"><g fill-rule="evenodd"><circle cx="26.4" cy="69.8" r="3.4"></circle><circle cx="26.4" cy="79.8" r="3.4"></circle><circle cx="14.6" cy="69.8" r="3.4"></circle><circle cx="14.6" cy="79.8" r="3.4"></circle><circle cx="38.2" cy="69.8" r="3.4"></circle><circle cx="38.2" cy="79.8" r="3.4"></circle><circle cx="26.4" cy="89.9" r="3.4"></circle><circle cx="38.2" cy="89.9" r="3.4"></circle><circle cx="49.9" cy="69.8" r="3.4"></circle><circle cx="49.9" cy="79.8" r="3.4"></circle><path d="M60.9.2c-4.7 0-9.1 1.3-12.8 3.7-2.1-.9-3.8-1.3-7.4-1.3H22.2C10.2 2.6.4 12.4.4 24.4v55.5c0 12 9.8 21.8 21.8 21.8h18.5c12 0 21.8-9.8 21.8-21.8V48.5C75.1 47.6 85 37.2 85 24.4 85.1 11 74.2.2 60.9.2zm20.8 22.5H70.6c-.2-7-1.6-14.1-4.1-18.4 8.3 2.3 14.5 9.6 15.2 18.4zM60.9 3.5c2.5 0 6.1 7.4 6.4 19.2H54.4c.3-11.8 3.9-19.2 6.5-19.2zM47.6 8.3c2.2-1.8 4.8-3.2 7.7-4-2.5 4.3-4 11.4-4.1 18.5H40v-.2-.4l.3-1.8c0-.1.1-.3.1-.4.1-.5.3-1.1.4-1.6 0-.1 0-.1.1-.2.2-.6.4-1.2.6-1.7 0-.1.1-.2.1-.3 1.4-3.1 3.4-5.8 6-7.9zm7.7 36.2C47 42.2 40.7 34.9 40 26h11.1c.2 7.1 1.6 14.2 4.2 18.5zM22.2 5.9h18.5c1.8 0 3.1.1 4.1.4-.3.3-.7.6-1 .9l-.1.1c-.3.3-.6.6-.9 1l-.3.3c-.1.1-.3.4-.5.6-.1.1-.2.3-.3.4-.2.2-.4.5-.5.7-.1.1-.2.3-.3.4-.2.2-.3.5-.5.7-.1.1-.2.3-.3.4-.2.3-.3.5-.5.8-.1.1-.1.3-.2.4l-.3.6c0 .1-.1.2-.1.3 0 0 0 .1-.1.1 0 .1-.1.1-.1.2-.1.1-.1.3-.2.4-.1.1-.1.3-.2.4-.1.1-.1.3-.2.4 0 .1-.1.2-.1.2-.1.2-.1.4-.2.6-.1.2-.1.3-.2.5 0 .1 0 .1-.1.2-.1.2-.1.4-.2.5 0 .2-.1.3-.1.5 0 .1-.1.2-.1.3v.2c0 .1 0 .2-.1.3 0 .1-.1.3-.1.4 0 .1-.1.3-.1.4 0 .1 0 .2-.1.4 0 .1 0 .3-.1.4 0 .2-.1.4-.1.6 0 .1 0 .3-.1.4v.3c0 .3 0 .5-.1.8v.1H3.8c.8-9.2 8.8-16.6 18.4-16.6zm37 73.9c0 10.2-8.3 18.5-18.5 18.5H22.2C12 98.4 3.7 90 3.7 79.8V61.3h55.5v18.5zm0-21.8H3.7V26h33c0 .3 0 .5.1.8 0 .2 0 .3.1.5 0 .2.1.5.1.7 0 .2.1.3.1.5s.1.4.1.7c0 .2.1.3.1.5s.1.4.1.6c0 .2.1.3.1.5.1.2.1.4.2.6.1.2.1.3.2.5s.1.4.2.6c.1.2.1.3.2.5s.1.4.2.6c.1.2.1.3.2.5l.3.6c.1.2.2.3.2.5.1.2.2.4.3.5.1.2.2.3.3.5.1.2.2.4.3.5.1.2.2.3.3.5.1.2.2.3.3.5.1.1.2.3.3.4.1.2.2.3.4.5.1.1.2.3.3.4.1.2.2.3.4.5.1.1.2.3.3.4.1.2.3.3.4.5.1.1.2.3.4.4.1.2.3.3.4.4l.4.4c.1.1.3.3.5.4l.4.4c.2.1.3.3.5.4.1.1.3.2.4.3.2.1.3.3.5.4.1.1.3.2.4.3.2.1.4.3.5.4.1.1.3.2.4.3.2.1.4.3.6.4.1.1.3.2.4.2.2.1.4.3.7.4.1.1.2.1.3.2.3.2.6.3 1 .5h.1c.3.2.7.3 1 .5.1 0 .2.1.3.1.2.1.5.2.7.3.1.1.3.1.4.1.2.1.4.2.7.2.2 0 .3.1.5.1.2.1.4.1.7.2.2 0 .3.1.5.1.2.1.4.1.6.1.2 0 .3.1.5.1s.4.1.6.1c.2 0 .4.1.5.1.2 0 .4.1.6.1.2 0 .4 0 .5.1h.4V58zm1.7-12.8c-2.5 0-6.1-7.4-6.4-19.2h12.9c-.4 11.8-4 19.2-6.5 19.2zm5.5-.7c2.5-4.3 4-11.4 4.2-18.5h11.1c-.7 8.9-7 16.2-15.3 18.5z"></path></g></svg>