<svg enable-background="new 0 0 100 100" viewBox="0 0 100 100" xmlns="http://www.w3.org/2000/svg"><path d="M76.8 12.5H54l8.4-8.4-2.5-2.5-9.5 9.5-9.5-9.5-2.5 2.5 8.6 8.6H23.2C10.5 12.6 0 22.9 0 35.9v39.3c0 12.6 10.1 23.1 23.1 23.2h53.7c12.8 0 23.2-10.3 23.2-23.2V35.7c0-12.9-10.3-23.2-23.2-23.2zM21.5 94.4c-8.1-.8-15-6.6-17.2-14.2h17.2v14.2zm16.1 0H25.1V80h12.5v14.4zm39.3 0H41V80h54.9c-2.3 8.5-9.9 14.4-19 14.4zm19.8-19.7c0 .8 0 1.7-.2 2.5v-.6H3.9c0-.6-.2-1.2-.2-1.9V35.4c0-11.1 8.9-19.7 19.7-19.7h53.7c11.1 0 19.7 8.9 19.7 19.7v39.3z"/><circle cx="75.2" cy="87.4" r="2.7"/></svg>